<?xml version="1.0" encoding="UTF-8"?>
<svg version="1.1" xmlns="http://www.w3.org/2000/svg" width="140" height="140">
<path d="M0 0 C1.29744141 -0.00386719 2.59488281 -0.00773438 3.93164062 -0.01171875 C23.82094273 0.00844273 23.82094273 0.00844273 25.9375 2.125 C25.9375 4.105 25.9375 6.085 25.9375 8.125 C19.6675 8.125 13.3975 8.125 6.9375 8.125 C10.23591266 9.77420633 13.9337313 9.78986707 17.5625 10.1875 C18.36429687 10.27837891 19.16609375 10.36925781 19.9921875 10.46289062 C21.97357868 10.68697653 23.95549305 10.9064275 25.9375 11.125 C25.90494792 13.14322917 25.87239583 15.16145833 25.83984375 17.1796875 C25.81100758 19.20685404 25.81100758 19.20685404 26.9375 21.125 C27.9275 21.125 28.9175 21.125 29.9375 21.125 C29.9375 21.785 29.9375 22.445 29.9375 23.125 C29.2775 23.125 28.6175 23.125 27.9375 23.125 C28.38480469 23.77984375 28.83210938 24.4346875 29.29296875 25.109375 C39.16972177 40.01927082 43.55643212 55.01269722 40.25390625 72.80859375 C35.83078071 88.09682435 27.43403965 100.48182796 13.63671875 108.66015625 C4.45445453 113.6432953 -4.25483329 116.51828825 -14.75 116.5 C-15.52585449 116.50128906 -16.30170898 116.50257812 -17.10107422 116.50390625 C-24.26263591 116.37415179 -30.38621117 114.76720618 -37.0625 112.125 C-37.1553125 112.69089844 -37.248125 113.25679688 -37.34375 113.83984375 C-38.23849408 116.68454641 -39.66824092 118.39342804 -41.5625 120.6875 C-43.69456859 123.27831286 -44.99362292 124.91836875 -46.0625 128.125 C-46.7225 128.125 -47.3825 128.125 -48.0625 128.125 C-48.03724243 127.14273438 -48.03724243 127.14273438 -48.01147461 126.140625 C-47.28071587 113.68163745 -47.28071587 113.68163745 -50.88671875 102.203125 C-53.15899342 100.33724083 -53.15899342 100.33724083 -55.6484375 98.78125 C-63.6181454 93.31335979 -68.28017201 80.86833012 -70.67578125 71.8046875 C-73.33408132 53.38454763 -68.80311619 37.42303217 -57.75 22.5 C-55.34690367 19.40940367 -55.34690367 19.40940367 -54.0625 18.125 C-55.3825 17.795 -56.7025 17.465 -58.0625 17.125 C-58.375 14.875 -58.375 14.875 -58.0625 12.125 C-49.43316275 2.30540934 -30.45729211 1.35364253 -18.17236328 0.31030273 C-12.11781757 -0.05046035 -6.06325029 -0.01812631 0 0 Z " fill="#020605" transform="translate(85.0625,9.875)"/>
<path d="M0 0 C0.33 21.12 0.66 42.24 1 64 C3.31 62.35 5.62 60.7 8 59 C8.66 59 9.32 59 10 59 C10 39.53 10 20.06 10 0 C12.64 0 15.28 0 18 0 C18 17.49 18 34.98 18 53 C20.97 51.68 23.94 50.36 27 49 C27.33 34.48 27.66 19.96 28 5 C29.65 5 31.3 5 33 5 C33 5.66 33 6.32 33 7 C32.34 7 31.68 7 31 7 C31.44730469 7.65484375 31.89460938 8.3096875 32.35546875 8.984375 C42.23222177 23.89427082 46.61893212 38.88769722 43.31640625 56.68359375 C38.89328071 71.97182435 30.49653965 84.35682796 16.69921875 92.53515625 C7.49940046 97.52782175 -1.18190828 100.35652051 -11.6875 100.375 C-12.40099609 100.39949219 -13.11449219 100.42398438 -13.84960938 100.44921875 C-21.50411732 100.489541 -26.00568397 98.45978955 -34 96 C-34 65.97 -34 35.94 -34 5 C-30.04 4.01 -26.08 3.02 -22 2 C-21.67 28.73 -21.34 55.46 -21 83 C-18.69 80.69 -16.38 78.38 -14 76 C-13.34 76 -12.68 76 -12 76 C-12 51.25 -12 26.5 -12 1 C-10 0 -10 0 0 0 Z " fill="#66FABB" transform="translate(82,26)"/>
<path d="M0 0 C1.051875 1.1446875 1.051875 1.1446875 2.125 2.3125 C5.23008195 5.47015139 5.23008195 5.47015139 11 8 C11 32.09 11 56.18 11 81 C1.72742462 77.29096985 -3.08698267 69.53564926 -7.4375 60.875 C-7.93213745 59.89055908 -7.93213745 59.89055908 -8.43676758 58.88623047 C-14.17564311 46.86863221 -15.05199517 32.87069985 -11.375 20.0625 C-8.83660472 12.93511967 -5.69974017 5.17543173 0 0 Z " fill="#65F8BA" transform="translate(27,34)"/>
<path d="M0 0 C2.85421338 0.01085815 5.70781566 -0.00002948 8.56201172 -0.01269531 C10.39144018 -0.01137583 12.22086826 -0.00881782 14.05029297 -0.00488281 C14.89612946 -0.00893127 15.74196594 -0.01297974 16.61343384 -0.01715088 C20.92536592 0.0171687 24.26926082 0.25670271 28.19873047 2.26074219 C28.19873047 3.91074219 28.19873047 5.56074219 28.19873047 7.26074219 C26.98479614 7.24503174 26.98479614 7.24503174 25.74633789 7.22900391 C0.0408729 6.94093642 -25.62905611 7.08069921 -49.67016602 17.47802734 C-51.80126953 18.26074219 -51.80126953 18.26074219 -54.80126953 18.26074219 C-55.67626953 15.57324219 -55.67626953 15.57324219 -55.80126953 12.26074219 C-51.76240436 8.20314966 -47.86472069 6.1724198 -42.36376953 4.57324219 C-41.10693359 4.1775 -39.85009766 3.78175781 -38.55517578 3.37402344 C-25.84333981 0.12826799 -13.02865367 -0.05912812 0 0 Z " fill="#000000" transform="translate(82.80126953125,-0.2607421875)"/>
<path d="M0 0 C1.29744141 -0.00386719 2.59488281 -0.00773438 3.93164062 -0.01171875 C23.82094273 0.00844273 23.82094273 0.00844273 25.9375 2.125 C25.97830783 4.12458364 25.98004356 6.12545254 25.9375 8.125 C25.02274902 8.07899658 24.10799805 8.03299316 23.16552734 7.9855957 C5.15624064 7.13043136 -12.28876661 6.45126599 -30.0625 10.125 C-30.83271484 10.28162109 -31.60292969 10.43824219 -32.39648438 10.59960938 C-38.77887724 11.94182933 -45.01377461 13.35759091 -50.8125 16.4375 C-54.0625 18.125 -54.0625 18.125 -56.265625 17.73046875 C-56.85859375 17.53066406 -57.4515625 17.33085937 -58.0625 17.125 C-58.375 14.875 -58.375 14.875 -58.0625 12.125 C-49.43316275 2.30540934 -30.45729211 1.35364253 -18.17236328 0.31030273 C-12.11781757 -0.05046035 -6.06325029 -0.01812631 0 0 Z " fill="#010201" transform="translate(85.0625,9.875)"/>
<path d="M0 0 C0 0.33 0 0.66 0 1 C-1.46469727 1.02187378 -1.46469727 1.02187378 -2.95898438 1.04418945 C-6.66455478 1.10320652 -10.36958105 1.18040642 -14.07470703 1.26245117 C-15.66283177 1.29522403 -17.25105972 1.32339515 -18.83935547 1.34643555 C-29.89566619 1.51098482 -40.18609941 2.64540993 -51 5 C-52.99933336 5.39918683 -54.99919079 5.79577749 -57 6.1875 C-58.33354685 6.45728004 -59.6669801 6.72762815 -61 7 C-55.35418952 0.4856033 -47.20814656 0.23218182 -39.125 -1.0625 C-38.07441406 -1.23587891 -37.02382813 -1.40925781 -35.94140625 -1.58789062 C-11.82016486 -5.52759275 -11.82016486 -5.52759275 0 0 Z " fill="#5BE1A7" transform="translate(96,20)"/>
<path d="M0 0 C0.66 0 1.32 0 2 0 C2 0.66 2 1.32 2 2 C1.34 2 0.68 2 0 2 C0 1.34 0 0.68 0 0 Z " fill="#000000" transform="translate(25,138)"/>
<path d="M0 0 C0.66 0 1.32 0 2 0 C2 0.66 2 1.32 2 2 C1.34 2 0.68 2 0 2 C0 1.34 0 0.68 0 0 Z " fill="#000000" transform="translate(25,133)"/>
<path d="M0 0 C0.33 0.66 0.66 1.32 1 2 C0.34 1.67 -0.32 1.34 -1 1 C-0.67 0.67 -0.34 0.34 0 0 Z " fill="#000000" transform="translate(80,138)"/>
</svg>
