<?xml version="1.0" encoding="utf-8"?>
<!-- Generator: Adobe Illustrator 25.0.1, SVG Export Plug-In . SVG Version: 6.00 Build 0)  -->
<svg version="1.1" id="Layer_1" xmlns="http://www.w3.org/2000/svg" xmlns:xlink="http://www.w3.org/1999/xlink" x="0px" y="0px"
	 viewBox="0 0 820 360" style="enable-background:new 0 0 820 360;" xml:space="preserve">
<style type="text/css">
	.st0{fill:#529260;}
	.st1{fill:#DE8448;}
	.st2{fill:#3F4A6A;}
	.st3{fill:#404A6B;}
	.st4{fill:#D24C45;}
</style>
<g>
	<path class="st0" d="M109.7,160.15c22.94-0.92,45.8-2,68.27-6.89c10.84-2.36,20.81-6.99,30.63-11.98
		c11.2-5.69,21.92-12.24,32.95-18.24c1.82-0.99,3.74-1.82,5.6-2.74c1.89-0.94,3.55-0.63,5.12,0.76c3.89,3.45,7.78,6.9,11.75,10.27
		c22.26,18.87,48.05,30.37,76.4,36.58c16.91,3.7,34.08,5.09,51.32,5.73c30.52,1.13,60.9-0.76,91.21-4.21
		c19.33-2.2,38.62-5.01,58.1-5.63c30.23-0.97,57.83,7.23,83.01,23.85c0.73,0.48,1.41,1.06,2.07,1.68
		c-5.72-2.49-11.41-5.04-17.23-7.26c-13.29-5.06-26.79-9.35-41.03-10.85c-8.21-0.87-16.33,0.11-24.42,1.26
		c-23.17,3.28-46.24,7.22-69.48,9.97c-33.78,3.99-67.67,6.42-101.66,3.97c-46.73-3.38-88.04-20.53-123.88-50.71
		c-1.16-0.98-1.95-0.82-3.13-0.24c-19.28,9.36-39.02,17.53-59.7,23.31c-14.62,4.08-29.57,4.81-44.63,4.42
		c-9.74-0.25-19.44-1.07-29.09-2.41C111.15,160.66,110.39,160.7,109.7,160.15z"/>
	<path class="st1" d="M587.24,140.38c-2.24-6.87-1.86-13.7-0.32-20.5c2.43-10.74,7.6-20.26,13.38-29.47
		c8.42-13.43,18.19-25.7,30.92-35.38c2.25-1.71,4.64-3.21,7.06-4.67c1.42-0.86,2.59-0.9,4.09-0.07
		c22.69,12.5,39.94,29.89,49.4,54.41c3.79,9.84,7.58,19.67,10.09,29.94c0.72,2.96,1.33,5.95,1.48,8.99
		c0.06,1.25,0.44,1.65,1.69,1.64c7.51-0.03,15.02,0.11,22.52-0.01c6.88-0.11,10.42,3.06,10.56,9.95c0.08,4.01,0.03,8.02,0.03,12.03
		c0.04,30.01,0.08,60.01,0.12,90.02c0,1.63,0,3.27-0.33,4.93c-0.92-7.45-1.84-14.9-2.75-22.35c-2.32-19.01-4.65-38.01-6.97-57.02
		c-1.07-8.77-2.19-17.53-3.14-26.31c-0.19-1.81-0.89-2.11-2.49-2.09c-8.55,0.08-17.1,0.01-25.64,0.13c-1.75,0.02-2.4-0.53-2.81-2.2
		c-4.22-17.35-9.33-34.43-17.78-50.26c-6.79-12.71-15.21-24.28-26.01-33.98c-1.88-1.69-3.95-3.13-6.18-4.36
		c-2.6-1.42-5.05-1.33-7.57,0.25c-3.42,2.14-6.47,4.73-9.43,7.45c-17.19,15.8-29.14,34.9-36.14,57.14
		C589.8,132.51,588.51,136.44,587.24,140.38z"/>
	<path class="st2" d="M74.44,205.85c0-2.3,0.08-4.6-0.02-6.9c-0.11-2.51,1.23-3.8,3.37-4.62c3.65-1.39,7.46-1.98,11.32-2.26
		c3.41-0.24,6.84-0.35,10.21,0.39c2.86,0.63,3.29,1.23,2.88,4.12c-1.53,10.67-2.64,21.37-2.2,32.18c0.21,5.29,0.88,10.5,2.62,15.53
		c2.6,7.48,7.21,12.84,15.48,13.91c8.52,1.11,15.75-1.38,20.99-8.47c4.23-5.72,6.01-12.38,6.88-19.29
		c1.25-9.89,0.7-19.73-1.45-29.44c-0.49-2.2,0.32-2.74,2.15-2.66c5.27,0.22,10.27,1.51,14.92,4.03c1.53,0.83,2.09,2,1.91,3.84
		c-1.35,13.94-3.46,27.71-9.11,40.67c-2.73,6.26-6.33,11.94-11.55,16.46c-11.21,9.72-28.31,10.52-41.51,1.89
		c-9.56-6.25-15.61-15.31-20.01-25.59C76.7,228.86,74.54,217.54,74.44,205.85z"/>
	<path class="st2" d="M514.37,202.88c2.23,0.06,4.44,0.21,6.65,0.59c1.63,0.28,2.49,1.18,2.85,2.7c0.67,2.8,0.58,5.59-0.13,8.37
		c-0.38,1.49-1.22,2.15-2.87,2.15c-5.57-0.02-11.14-0.03-16.69,0.62c-1.77,0.21-3.55,0.45-5.23,1.07c-1.46,0.53-3.12,1.05-3.27,2.93
		c-0.14,1.75,1.3,2.56,2.58,3.32c2.38,1.42,5.01,2.25,7.65,3c4.72,1.34,9.54,2.23,14.35,3.18c5.36,1.06,10.49,2.79,15.09,5.79
		c6.6,4.31,8.89,10.26,6.92,17.9c-2.42,9.35-8.14,16.31-16.31,21.13c-13.4,7.91-27.64,9.98-42.62,5.08
		c-4.29-1.4-8.02-3.8-11.27-6.97c-1.49-1.45-1.77-2.99-1.13-4.84c1.14-3.31,3.09-6.06,5.79-8.29c1.5-1.24,3.06-1.47,4.96-0.79
		c8.46,3.04,17.13,4.94,26.19,4.35c9.57-0.63,17.48-4.41,23.03-12.48c2.19-3.19,1.84-4.62-1.72-6.13
		c-5.86-2.49-12.13-3.4-18.34-4.54c-5.11-0.94-10.25-1.73-15.36-2.7c-3.6-0.69-7.01-1.97-10.05-4.07
		c-5.62-3.87-6.96-9.61-3.63-15.57c2.23-4,5.56-6.93,9.44-9.24C498.38,205.19,506.12,203.11,514.37,202.88z"/>
	<path class="st2" d="M207.48,266.69c-16.14-0.26-27.76-1.27-39.36-2.54c-3.93-0.43-4.92-2.45-2.81-5.75c1.42-2.22,3.28-4,5.59-5.33
		c9.47-5.44,19.41-10,28.98-15.25c5.61-3.07,11.08-6.36,16.13-10.3c0.56-0.43,1.52-0.77,1.26-1.64c-0.27-0.9-1.26-0.58-1.95-0.6
		c-10.35-0.25-20.64,0.5-30.92,1.65c-0.66,0.07-1.33,0.18-1.99,0.21c-1.31,0.05-1.68-0.61-1.42-1.84
		c1.64-7.65,9.61-14.62,17.37-15.08c10.66-0.64,21.08,0.47,31.05,4.53c1.51,0.61,3.01,1.32,4.36,2.22c2.85,1.92,3.07,5.24,0.58,7.56
		c-4.97,4.64-10.62,8.34-16.41,11.85c-6.86,4.15-13.94,7.96-20.42,12.72c-0.91,0.67-2.56,1.23-2.19,2.5
		c0.42,1.41,2.15,1.04,3.35,1.01c9.58-0.18,19.19-0.13,28.51-2.9c5.74-1.7,11.02-4.4,16.11-7.51c2.21-1.35,2.55-1.24,3.47,1.24
		c1.41,3.83,1.94,7.78,1.34,11.83c-0.55,3.69-2.36,6.16-6.21,7.25C229.15,266.12,216.13,266.73,207.48,266.69z"/>
	<path class="st3" d="M457.79,154.08c9.19-4.01,18.64-7.07,28.28-9.52c16.87-4.28,33.93-6.8,51.4-5.64
		c14.48,0.96,28.44,4.48,42.25,8.69c8.38,2.55,16.76,5.12,25.13,7.72c12.9,3.99,26.16,5.3,39.6,5.4
		c11.38,0.09,22.74-0.17,34.08-1.16c0.49-0.04,0.99-0.01,1.94-0.01c-5.26,2.84-10.43,4.81-15.68,6.59
		c-20.91,7.05-41.96,7.13-63.23,1.64c-13.09-3.38-26.09-7.09-39.06-10.89c-16.36-4.8-32.98-6.6-50-5.84
		C494.26,151.87,476.02,152.83,457.79,154.08z"/>
	<path class="st2" d="M717.38,220.86c0,9.53-0.63,19-3.2,28.24c-1.02,3.67-2.39,7.19-4.53,10.36c-4.57,6.79-11.54,8.86-19.12,5.69
		c-4.43-1.85-7.88-4.98-11.04-8.49c-3.89-4.32-7.04-9.19-10.24-14.02c-0.52-0.78-0.92-1.97-2.03-1.82
		c-1.15,0.16-1.11,1.44-1.34,2.33c-1.51,6.01-1.81,12.18-2.24,18.32c-0.29,4.08-1,4.95-4.06,4.99c-3.49,0.05-5.54-1.57-5.71-5.11
		c-0.61-13.2,0.38-26.26,4.09-39.03c0.23-0.78,0.54-1.54,0.87-2.29c2.33-5.34,5.1-6.27,10.2-3.37c3.35,1.91,5.94,4.7,8.33,7.65
		c3.36,4.16,6.58,8.43,9.94,12.6c2.76,3.42,5.77,6.61,9.6,8.89c2.57,1.52,3.57,1.2,4.81-1.55c5.02-11.14,8.29-22.72,8.66-35.01
		c0.04-1.33-0.01-2.69,0.63-3.93c0.62-1.19,1.49-2.12,2.92-2.04c1.37,0.07,2.08,1.08,2.45,2.28c0.26,0.84,0.4,1.73,0.49,2.61
		C717.32,212.39,717.36,216.63,717.38,220.86z"/>
	<path class="st3" d="M278.05,266.54c-5.44,0.01-10.82-0.49-16.17-1.51c-1.88-0.36-2.77-1.21-2.99-3.19
		c-1.71-15.56-3.51-31.12-5.27-46.68c-0.43-3.83,0.81-5.37,4.66-5.25c12.43,0.41,24.71,2,36.71,5.38c0.36,0.1,0.7,0.24,1.05,0.37
		c6.12,2.25,7.08,5.47,3.23,10.83c-1.13,1.57-2.45,2.99-3.87,4.3c-1.28,1.19-1.13,1.87,0.6,2.37c4.71,1.36,9.34,2.96,13.75,5.14
		c2.87,1.42,5.64,3.02,7.91,5.33c3.86,3.91,3.85,8.04-0.07,11.88c-3.2,3.14-7.18,4.98-11.32,6.47
		C297.15,265.26,287.7,266.52,278.05,266.54z M285.62,257c5-0.01,9.44-0.39,13.71-1.78c1.53-0.5,3.72-0.49,4.01-2.6
		c0.28-2.05-1.71-2.81-3.04-3.75c-4.99-3.53-10.76-5.27-16.54-6.98c-3.7-1.09-7.51-1.83-11.02-3.49c-2.51-1.19-2.81-2.86-0.91-4.9
		c0.6-0.65,1.31-1.22,2.03-1.72c2.45-1.7,5.16-2.93,7.8-4.29c1.78-0.92,3.62-1.76,5.15-3.08c1.53-1.32,1.51-2.29-0.08-3.37
		c-0.73-0.5-1.55-0.89-2.38-1.2c-5.58-2.05-11.32-2.26-17.13-1.42c-3.72,0.54-3.88,0.86-3.3,4.62c1.49,9.68,3.72,19.23,4.66,29
		c0.15,1.54,0.95,2.37,2.39,2.82C275.93,256.38,281,256.94,285.62,257z"/>
	<path class="st3" d="M389.72,254.73c0.21,2.89,0.32,5.78,0.66,8.65c0.2,1.61-0.36,2.38-1.86,2.65c-0.66,0.12-1.31,0.3-1.97,0.36
		c-5.34,0.54-6.1-0.3-5.75-5.52c1.07-15.64,0.87-31.31,0.55-46.97c-0.08-3.99,0.59-4.65,4.64-4.21c2.62,0.29,5.07,1.1,7.37,2.37
		c1.46,0.81,2.05,1.8,1.62,3.63c-1.03,4.33-1.8,8.72-2.65,13.09c-0.15,0.77-0.55,1.69,0.3,2.25c0.73,0.49,1.42-0.14,2.06-0.46
		c9.94-4.94,19.59-10.3,27.17-18.7c1.67-1.85,5.5-1.24,6.87,0.86c0.8,1.23,0.13,2.08-0.64,2.95c-3.26,3.67-6.71,7.14-10.4,10.38
		c-4.92,4.31-10.16,8.22-15.35,12.18c-2.25,1.72-2.36,2.68-0.3,4.63c8,7.57,17.74,11.45,28.42,13.28c1.53,0.26,3.09,0.4,4.64,0.55
		c2.96,0.3,4.15,2.67,2.47,5.2c-1.89,2.85-4.68,4.25-8.06,4.51c-3.95,0.31-7.67-0.65-11.3-2.06c-9.16-3.58-17.15-9.1-24.86-15.08
		c-0.47-0.36-0.91-0.76-1.39-1.11c-0.46-0.34-0.91-0.92-1.55-0.61c-0.63,0.3-0.52,1.02-0.52,1.59c-0.02,1.86-0.01,3.71-0.01,5.57
		C389.83,254.72,389.78,254.73,389.72,254.73z"/>
	<path class="st2" d="M359.02,266.58c-19.99,0.21-35.57-16.45-34.4-36.77c0.92-15.98,11.74-28.57,27.48-32.03
		c1.42-0.31,2.5,0.02,3.37,1.09c3.88,4.78,6.2,10.25,7.05,16.33c0.22,1.57-0.44,2.4-2.15,2.7c-4.63,0.81-9.09,2.2-13.25,4.43
		c-2.24,1.2-4.3,2.64-6.1,4.44c-8.11,8.12-6.06,20.41,4.32,25.36c7.01,3.35,13.88,2.21,20.56-1.14c3.25-1.63,3.48-1.58,4.2,2
		c0.66,3.29,0.9,6.61,0.27,9.95c-0.3,1.56-1.04,2.43-2.71,2.74C364.78,266.2,361.92,266.51,359.02,266.58z"/>
	<path class="st2" d="M642.31,262.97c-1.37,0.05-2.47-0.66-3.1-2.44c-2.32-6.58-4.58-13.18-7.56-19.51
		c-2.38-5.06-5.21-9.85-8.9-14.08c-1.65-1.89-2.36-1.8-3.56,0.43c-6.53,12.17-13.34,24.2-18.68,36.96c-0.65,1.55-1.7,2.11-3.27,2.12
		c-1.58,0.01-3.1-0.28-4.58-0.81c-4.99-1.78-5.93-3.63-4.18-8.52c4.3-12.04,9.12-23.85,15.49-34.98c1.88-3.29,3.99-6.43,6.6-9.22
		c2.6-2.77,5.68-3.58,9.32-2.67c4,1,7.08,3.35,9.66,6.44c3.86,4.63,6.33,10.02,8.49,15.58c3.49,9.02,5.66,18.44,8.4,27.69
		C646.98,261.81,645.46,262.98,642.31,262.97z"/>
	<path class="st4" d="M274.81,115.66c4.09-4.59,8.54-8.24,13.55-11.2c16.73-9.87,33.26-8.74,49.54,1.11
		c9.52,5.76,17.18,13.23,20.94,24c3.39,9.73,2.76,19.42-0.61,29.02c-0.14,0.39-0.38,0.74-0.7,1.35c0.88-9.21-2.2-16.97-7.85-23.49
		c-12.74-14.7-28.58-24.23-48.14-26.7c-8.64-1.09-16.85,0.71-24.44,5.09C276.55,115.17,276.09,115.73,274.81,115.66z"/>
	<path class="st3" d="M560.78,245.23c0-5.35,0.02-10.69-0.01-16.04c-0.01-2.57-0.3-2.84-2.84-2.68c-7.88,0.49-15.74,0.22-23.61-0.3
		c-2.13-0.14-2.88-0.93-2.62-3.03c0.36-2.91,1.14-5.66,2.5-8.26c0.92-1.75,2.23-2.49,4.3-2.46c11.81,0.16,23.63,0.47,35.4-0.87
		c3.76-0.43,7.53-0.88,11.26-1.54c1.88-0.34,3.01,0.28,3.85,1.8c1.24,2.24,1.92,4.64,2.11,7.2c0.12,1.55-0.48,2.24-2.02,2.57
		c-5.81,1.24-11.62,2.47-17.5,3.36c-3.07,0.47-3.35,0.79-3.29,3.84c0.18,9.62,1.8,19.05,3.69,28.45c0.2,1.02,0.37,2.04,0.5,3.07
		c0.48,3.87-0.8,5.5-4.69,6.01c-0.37,0.05-0.74,0.07-1.11,0.08c-4.93,0.19-5.97-0.73-6.03-5.64c-0.06-5.19-0.01-10.39-0.01-15.58
		C560.71,245.23,560.75,245.23,560.78,245.23z"/>
	<path class="st2" d="M465.07,253.66c0,3.34-0.09,6.68,0.04,10.01c0.07,1.78-0.72,2.38-2.3,2.51c-4.64,0.37-9.19-0.1-13.66-1.39
		c-1.74-0.5-2.44-1.48-2.36-3.41c0.5-12.91,1.96-25.74,2.74-38.63c0.2-3.26,0.28-6.52,0.48-9.78c0.16-2.62,1.38-3.53,3.82-2.61
		c3.25,1.22,5.72,3.18,6.54,6.91C463.03,229.26,464.41,241.4,465.07,253.66z"/>
	<path class="st3" d="M348.91,241.58c-4.69,0.21-6.54-1.49-5.89-5.38c0.18-1.08,0.66-1.93,1.6-2.54c4.95-3.18,10.27-5.18,16.2-5.57
		c2.04-0.13,3.04,0.74,3.49,2.57c0.05,0.22,0.11,0.43,0.16,0.65c1.29,5.9,0.57,7.14-5.26,8.67
		C355.83,240.87,352.4,241.43,348.91,241.58z"/>
	<path class="st3" d="M617.33,262.29c-3.2-0.01-4.78-1.15-5.6-3.59c-1.05-3.14-0.37-6.5,1.93-8.08c3.6-2.47,7.64-3.12,11.88-2.11
		c2.23,0.53,2.76,2.54,3.09,4.46c0.39,2.25-0.09,4.47-1.99,5.78C623.69,260.77,620.34,262,617.33,262.29z"/>
	<path class="st4" d="M274.42,116.19c0.09-0.09,0.18-0.18,0.26-0.27c0.02,0.08,0.05,0.17,0.07,0.25c-0.12,0-0.25,0-0.37-0.01
		L274.42,116.19z"/>
	<path class="st4" d="M274.39,116.16c0.05,0.34-0.17,0.41-0.43,0.43c0,0-0.01,0.03-0.01,0.03c0.16-0.14,0.32-0.29,0.48-0.43
		C274.42,116.19,274.39,116.16,274.39,116.16z"/>
	<polygon class="st4" points="273.96,116.6 273.94,116.69 273.95,116.63 	"/>
</g>
</svg>
